<?xml version="1.0" standalone="no"?>
<!DOCTYPE svg PUBLIC "-//W3C//DTD SVG 20010904//EN"
 "http://www.w3.org/TR/2001/REC-SVG-20010904/DTD/svg10.dtd">
<svg version="1.0" xmlns="http://www.w3.org/2000/svg"
 width="700.000000pt" height="700.000000pt" viewBox="0 0 700.000000 700.000000"
 preserveAspectRatio="xMidYMid meet">
<metadata>
Created by potrace 1.14, written by Peter Selinger 2001-2017
</metadata>
<g transform="translate(0.000000,700.000000) scale(0.100000,-0.100000)"
fill="#000000" stroke="none">
<path d="M4009 6746 c-2 -2 -67 -6 -144 -10 -77 -3 -151 -8 -165 -11 -14 -2
-50 -7 -80 -10 -112 -12 -154 -19 -279 -45 -54 -11 -107 -22 -120 -25 -12 -2
-36 -9 -54 -14 -18 -6 -68 -21 -112 -33 l-80 -24 -12 -59 c-7 -33 -14 -73 -17
-90 -3 -16 -17 -88 -31 -160 -30 -156 -28 -142 -54 -285 -12 -63 -25 -131 -30
-150 -11 -50 -11 -49 -11 -66 0 -10 -38 -33 -107 -65 -60 -28 -139 -66 -178
-84 -182 -87 -289 -135 -298 -135 -6 0 -51 31 -101 69 -50 38 -170 128 -266
200 -96 73 -183 139 -193 147 -9 7 -20 14 -23 14 -5 0 -78 -74 -527 -534 -65
-67 -144 -147 -174 -178 l-57 -57 39 -58 c22 -32 42 -60 45 -63 7 -6 235 -323
301 -418 l46 -66 -42 -75 c-23 -42 -69 -128 -102 -191 -137 -259 -123 -238
-173 -249 -25 -6 -56 -13 -70 -15 -14 -2 -36 -7 -50 -10 -14 -3 -41 -8 -60
-10 -19 -3 -80 -15 -135 -26 -55 -11 -115 -23 -134 -26 -18 -3 -41 -7 -50 -9
-9 -2 -68 -13 -131 -25 -63 -12 -124 -23 -135 -25 -18 -4 -23 -22 -45 -157
-13 -84 -25 -157 -26 -163 -1 -5 -7 -45 -14 -88 -6 -43 -13 -88 -15 -100 -6
-34 -46 -279 -50 -307 -2 -14 -6 -38 -9 -55 -2 -16 -8 -51 -11 -76 l-7 -45
397 0 c218 1 401 -1 406 -4 4 -3 20 -46 34 -95 13 -50 29 -104 35 -122 6 -18
13 -40 15 -50 2 -10 16 -58 30 -108 14 -49 28 -101 31 -114 3 -14 7 -27 9 -31
2 -3 -14 -26 -36 -50 -21 -24 -61 -68 -87 -99 -80 -94 -333 -384 -366 -421
-98 -111 -146 -169 -146 -179 0 -18 109 -189 186 -291 87 -115 219 -257 332
-356 l84 -74 36 28 c21 15 39 29 42 32 3 3 59 46 125 95 66 50 122 92 125 95
3 3 84 64 180 135 96 71 177 132 180 135 17 19 132 100 142 100 7 0 53 -20
103 -44 49 -24 119 -56 155 -71 36 -15 79 -33 95 -39 17 -7 52 -22 80 -32 l50
-20 0 -486 c0 -312 4 -490 10 -496 9 -8 109 -28 177 -36 13 -2 46 -6 73 -10
122 -16 409 -23 520 -12 28 3 75 8 105 11 68 6 145 18 210 30 19 4 40 8 47 9
21 4 24 12 39 116 2 19 7 46 9 60 3 14 8 41 11 60 3 19 16 99 30 177 13 79 26
160 29 180 2 21 7 49 10 63 2 14 7 39 9 55 3 17 8 46 11 65 3 19 8 49 11 65
30 187 28 182 71 190 51 9 244 76 342 119 87 38 249 121 265 136 7 7 76 -39
106 -70 3 -3 50 -41 105 -85 55 -43 102 -82 105 -85 3 -3 48 -39 100 -81 52
-42 157 -126 233 -187 l138 -112 27 18 c15 9 32 20 37 24 6 4 64 47 130 96
262 193 500 412 758 699 20 23 37 46 37 50 0 10 -44 58 -186 206 -54 57 -175
184 -269 282 -93 98 -185 194 -202 213 -34 35 -41 56 -22 68 42 26 235 374
247 447 1 4 9 24 18 45 8 20 17 45 19 55 10 45 18 57 38 58 12 0 33 2 47 5 36
6 474 74 507 79 15 2 57 8 93 14 36 5 83 12 105 16 22 3 47 7 55 10 8 2 38 6
65 10 44 5 127 18 190 30 11 2 27 4 36 4 30 2 100 287 123 501 7 59 8 345 2
395 -2 17 -7 57 -10 90 -4 33 -13 87 -19 120 l-12 60 -60 -1 c-98 -2 -551 -13
-822 -20 l-253 -6 -1 34 c-4 161 -78 341 -187 455 l-31 31 22 25 c12 13 51 57
87 98 36 41 76 86 90 101 14 14 48 52 76 85 78 89 229 259 307 346 111 123
127 142 127 148 0 6 -161 167 -220 220 -117 104 -290 226 -453 320 -101 58
-122 66 -137 56 -9 -7 -119 -97 -245 -202 -125 -104 -275 -230 -334 -278 -58
-49 -117 -99 -131 -110 -72 -62 -61 -60 -136 -32 -142 53 -258 76 -413 79 -72
2 -85 4 -87 19 -1 10 -5 68 -8 130 -4 62 -8 137 -11 167 -4 56 -10 143 -21
310 -9 157 -12 182 -22 192 -4 4 -10 7 -13 4z m-379 -1881 c167 -10 298 -44
440 -113 221 -108 376 -298 438 -537 118 -454 -82 -1033 -496 -1434 -99 -96
-232 -199 -317 -247 -107 -60 -140 -76 -206 -103 -75 -29 -175 -59 -234 -68
-16 -3 -48 -8 -70 -12 -64 -12 -252 -5 -340 12 -381 74 -730 368 -858 723 -61
170 -72 392 -27 566 85 329 304 646 606 875 210 159 475 285 672 319 12 2 34
6 50 9 15 3 61 9 102 12 41 3 76 7 78 8 1 1 17 1 35 -1 17 -1 75 -5 127 -9z"/>
</g>
</svg>
